<svg xmlns="http://www.w3.org/2000/svg" data-name="Layer 1" viewBox="0 0 512 512"><path d="M507.55,327.32a60.72,60.72,0,0,0,4.45-22.6,60.06,60.06,0,0,0-3.7-20.58,62.82,62.82,0,0,0,3.2-19.68c0-33.27-26.75-64.11-75.35-87V74.39a6,6,0,0,0,0-.74h52.42a7.44,7.44,0,0,0,7.5-7.38V7.38A7.45,7.45,0,0,0,488.53,0H368.77a7.45,7.45,0,0,0-7.5,7.38V66.27a7.44,7.44,0,0,0,7.5,7.38h52.42c0,.24,0,.49,0,.74V171c-46-18.44-103.94-28.5-165.15-28.5-61.66,0-120,10.22-166.15,28.91v-97a6,6,0,0,0,0-.74h52.42a7.44,7.44,0,0,0,7.5-7.38V7.38A7.45,7.45,0,0,0,142.23,0H22.47A7.45,7.45,0,0,0,15,7.38V66.27a7.44,7.44,0,0,0,7.5,7.38H74.89a6,6,0,0,0,0,.74V178C26.88,200.78.5,231.42.5,264.46a63,63,0,0,0,3.69,21.13,59.18,59.18,0,0,0,.26,39.08,59.58,59.58,0,0,0,.1,45.43A60.61,60.61,0,0,0,0,392.94c0,26.6,17.77,51.58,51.39,72.23C82.93,484.54,126,498.74,176,506.23c2.69.4,5.42.78,8.17,1.14,7.25,1,14.66,1.79,22.12,2.46h.1c16,1.44,32.55,2.16,49.1,2.16s33.08-.72,49.1-2.16h.11c10.28-.92,20.47-2.13,30.28-3.6,50-7.49,93.09-21.69,124.62-41.06C493.23,444.52,511,419.54,511,392.94a60.61,60.61,0,0,0-4.55-22.84,59.48,59.48,0,0,0,1.1-42.78ZM466.09,14.77H481V29.44H466.09Zm0,29.44H481V58.88H466.09ZM436.15,14.77h14.94V29.44H436.15Zm0,29.44h14.94V58.88H436.15ZM391.21,58.88H376.27V44.21h14.94Zm0-29.44H376.27V14.77h14.94Zm29.94,29.44H406.21V44.21h14.94Zm0-29.44H406.21V14.77h14.94ZM119.79,14.77h14.94V29.44H119.79Zm0,29.44h14.94V58.88H119.79ZM89.85,14.77h14.94V29.44H89.85Zm0,29.44h14.94V58.88H89.85ZM44.91,58.88H30V44.21H44.91Zm0-29.44H30V14.77H44.91ZM74.85,58.88H59.91V44.21H74.85Zm0-29.44H59.91V14.77H74.85Zm63.68,328.4L161.26,327a7,7,0,0,0,1.3-3.16A592.27,592.27,0,0,0,248.49,331a7.24,7.24,0,0,0-.49,2.6v38.08C209.08,371.06,171.78,366.31,138.53,357.84ZM16.17,272.39h37a7.41,7.41,0,0,0,1.5-.16c6.55,22.76,43.89,39.25,92.54,48.86l-24,32.52a301,301,0,0,1-39.44-14.78C44,320.42,20.36,297.08,16.17,272.39ZM263,199.05V157.28c42.7.55,83.48,6.12,119.13,16.11L358,207.64C328.65,202.32,295.63,199.42,263,199.05Zm-15,0c-32.63.42-65.61,3.37-94.91,8.73L129,173.63c35.57-10.06,76.29-15.71,119-16.34Zm8,14.72c51.32,0,99.47,6,135.58,16.84,31.93,9.61,51.76,22.78,51.76,34.38,0,5.49-4.44,11.33-12.5,17a158.68,158.68,0,0,0-24.13-14c-19.76-9.43-43.23-16.8-69.76-21.91a442.54,442.54,0,0,0-162.9,0c-26.53,5.11-50,12.48-69.75,21.91a160.3,160.3,0,0,0-23.65,13.66c-7.73-5.53-12-11.24-12-16.62,0-11.6,19.83-24.77,51.76-34.38C156.53,219.76,204.68,213.78,256,213.78Zm0,102.45c-51.32,0-99.47-6-135.58-16.84a183.22,183.22,0,0,1-25.62-9.65,158,158,0,0,1,15.38-8.35c18.7-8.92,41-15.93,66.44-20.82a429.24,429.24,0,0,1,157.76,0c25.39,4.89,47.75,11.9,66.45,20.82A159,159,0,0,1,416.64,290a185.7,185.7,0,0,1-25.06,9.38C355.47,310.25,307.32,316.23,256,316.23ZM262.52,331a593.94,593.94,0,0,0,86-7,6.89,6.89,0,0,0,1.19,2.78l22.56,31.39C339,366.5,301.8,371.15,263,371.65v-38.1A7.44,7.44,0,0,0,262.52,331Zm124.4,23.2-23.56-32.79c49.26-9.56,87.2-26.1,93.91-49,.25,0,.5,0,.75,0h37.81c-4.19,24.69-27.83,48-67.65,66.44A304.18,304.18,0,0,1,386.92,354.16ZM496,257.62H458a6.28,6.28,0,0,0-.75,0c-6.21-21.24-39.26-37-83.26-46.81l23-32.68c.05-.06.09-.14.14-.21a292.54,292.54,0,0,1,31,12.14C468.58,208.77,492.32,232.53,496,257.62ZM83.82,190.1A290,290,0,0,1,114,178.24l23.1,32.8c-43.66,9.84-76.35,25.58-82.44,46.74a7.41,7.41,0,0,0-1.5-.16H16C19.68,232.53,43.42,208.77,83.82,190.1Zm85.82,300.15c-43.8-7.43-82.72-20.66-110.31-37.61C39.11,440.22,15,419.78,15,392.94a43,43,0,0,1,.25-4.53c11.41,14.75,29,28.32,51.92,39.84,28.06,14.12,63.37,24.88,102.47,31.27Zm0-45.7C133,438.36,100.12,428.24,74,415.1,46.48,401.24,27.64,384.62,19.52,367A46.93,46.93,0,0,1,15,347.26c0-1,0-1.95.11-2.93,25,33.58,81.5,60.42,154.53,72.51Zm126.78,51.14a548,548,0,0,1-81.84,0V445h81.84Zm29.94-3.16-.5.07-1.57.21-5.16.65-2.17.25c-1.62.19-3.26.38-4.89.55l-.65.07V437.61a7.44,7.44,0,0,0-7.5-7.39H207.08a7.45,7.45,0,0,0-7.5,7.39v56.72l-.7-.07-4.82-.54-2.2-.26-5.13-.65-1.6-.21-.49-.07V415.45H326.36Zm7.5-91.85H177.14a7.56,7.56,0,0,0-4.71,1.64c-38.42-6.34-72.78-17-99.66-30.89-27.6-14.3-46-31.35-53.29-49.33a46.58,46.58,0,0,1-3.41-15C29,324,49.74,339.39,77.45,352.2c47.33,21.87,109.93,34,176.47,34.25a7.5,7.5,0,0,0,1.58.17,8.09,8.09,0,0,0,1.56-.16C324,386.33,387,374.18,434.55,352.2,463,339,484.13,323.17,497,305.69a47.17,47.17,0,0,1-4.33,18.47c-8,17.72-26.94,34.46-54.69,48.43-26.95,13.55-61.1,23.88-99.07,30A7.55,7.55,0,0,0,333.86,400.68Zm117.81,52c-27.59,16.95-66.51,30.18-110.31,37.61V459.52c39.1-6.39,74.41-17.15,102.47-31.27,22.88-11.52,40.51-25.09,51.93-39.84.15,1.51.24,3,.24,4.53C496,419.78,471.9,440.22,451.67,452.64Zm39.8-85.59c-8.11,17.57-26.94,34.19-54.47,48.05-26.12,13.14-59,23.26-95.64,29.45v-27.4c39.48-6.37,75.12-17.18,103.41-31.41,22.42-11.28,39.78-24.51,51.22-38.9,0,.14,0,.28,0,.42A46.87,46.87,0,0,1,491.47,367.05Z"/></svg>