<svg xmlns="http://www.w3.org/2000/svg" viewBox="0 0 32 32"><path d="M1.5 30h2a.5.5 0 0 0 0-1H3v-1h26v1h-.5a.5.5 0 0 0 0 1h2a.5.5 0 0 0 0-1H30V10.5a.5.5 0 0 0-1 0v.5h-1V2.5a.5.5 0 0 0-.5-.5h-23a.5.5 0 0 0-.5.5V11H3v-.5a.5.5 0 0 0-1 0V29h-.5a.5.5 0 0 0 0 1zM5 3h22v15H5V3zM3 15.5V12h1v6.5a.5.5 0 0 0 .5.5h23a.5.5 0 0 0 .5-.5V12h1v8H3v-4.5zM3 21h26v6H3v-6z"/><path d="M21.854 5.146a.5.5 0 0 0-.707.707l.146.147h-.079c-3.936 0-7.14 3.17-7.208 7.09A1.497 1.497 0 0 0 13 14.5c0 .827.673 1.5 1.5 1.5s1.5-.673 1.5-1.5c0-.649-.416-1.197-.994-1.406C15.071 9.723 17.828 7 21.214 7h.079l-.146.146a.5.5 0 0 0 .707.708l1-1a.5.5 0 0 0 0-.707l-1-1.001zM14.5 15a.5.5 0 1 1 .002-1.002A.5.5 0 0 1 14.5 15zM11.854 11.146a.5.5 0 0 0-.707 0l-.647.647-.646-.646a.5.5 0 0 0-.707.707l.646.646-.646.646a.5.5 0 0 0 .707.708l.646-.646.646.646a.502.502 0 0 0 .708 0 .5.5 0 0 0 0-.707l-.647-.647.646-.646a.5.5 0 0 0 .001-.708z"/><path d="M20.854 10.146a.5.5 0 0 0-.707 0l-.647.647-.646-.646a.5.5 0 0 0-.707.707l.646.646-.646.646a.5.5 0 0 0 .707.708l.646-.646.646.646a.502.502 0 0 0 .708 0 .5.5 0 0 0 0-.707l-.647-.647.646-.646a.5.5 0 0 0 .001-.708zM14.146 7.854a.502.502 0 0 0 .708 0 .5.5 0 0 0 0-.707l-.647-.647.646-.646a.5.5 0 0 0-.707-.707l-.646.646-.646-.646a.5.5 0 0 0-.707.707l.646.646-.646.646a.5.5 0 0 0 .707.708l.646-.647.646.647z"/></svg>